HIERARCHY
ROOT hip
{
  OFFSET 41.6479 15.7262 -80.0985
  CHANNELS 6 Xposition Yposition Zposition Zrotation Xrotation Yrotation
  JOINT abdomen
  {
    OFFSET 0 20.6881 -0.73152
    CHANNELS 3 Zrotation Xrotation Yrotation
    JOINT chest
    {
      OFFSET 0 11.7043 -0.48768
      CHANNELS 3 Zrotation Xrotation Yrotation
      JOINT neck
      {
        OFFSET 0 22.1894 -2.19456
        CHANNELS 3 Zrotation Xrotation Yrotation
        JOINT head
        {
          OFFSET -0.24384 7.07133 1.2192
          CHANNELS 3 Zrotation Xrotation Yrotation
          JOINT leftEye
          {
            OFFSET 4.14528 8.04674 8.04672
            CHANNELS 3 Zrotation Xrotation Yrotation
            End Site
            {
              OFFSET 1 0 0
            }
          }
          JOINT rightEye
          {
            OFFSET -3.6576 8.04674 8.04672
            CHANNELS 3 Zrotation Xrotation Yrotation
            End Site
            {
              OFFSET 1 0 0
            }
          }
        }
      }
      JOINT rCollar
      {
        OFFSET -2.68224 19.2634 -4.8768
        CHANNELS 3 Zrotation Xrotation Yrotation
        JOINT rShldr
        {
          OFFSET -8.77824 -1.95073 1.46304
          CHANNELS 3 Zrotation Xrotation Yrotation
          JOINT rForeArm
          {
            OFFSET -28.1742 -1.7115 0.48768
            CHANNELS 3 Zrotation Xrotation Yrotation
            JOINT rHand
            {
              OFFSET -22.5879 0.773209 7.07136
              CHANNELS 3 Zrotation Xrotation Yrotation
              JOINT rThumb1
              {
                OFFSET -1.2192 -0.487915 3.41376
                CHANNELS 3 Zrotation Xrotation Yrotation
                JOINT rThumb2
                {
                  OFFSET -3.37035 -0.52449 3.41376
                  CHANNELS 3 Zrotation Xrotation Yrotation
                  End Site
                  {
                    OFFSET -1.78271 -1.18214 1.43049
                  }
                }
              }
              JOINT rIndex1
              {
                OFFSET -7.75947 0.938293 5.60832
                CHANNELS 3 Zrotation Xrotation Yrotation
                JOINT rIndex2
                {
                  OFFSET -2.54057 -0.884171 1.56538
                  CHANNELS 3 Zrotation Xrotation Yrotation
                  End Site
                  {
                    OFFSET -1.62519 -0.234802 1.16502
                  }
                }
              }
              JOINT rMid1
              {
                OFFSET -8.24714 1.18213 3.41376
                CHANNELS 3 Zrotation Xrotation Yrotation
                JOINT rMid2
                {
                  OFFSET -3.10165 -0.590103 1.0647
                  CHANNELS 3 Zrotation Xrotation Yrotation
                  End Site
                  {
                    OFFSET -2.48547 -0.328903 0.83742
                  }
                }
              }
              JOINT rRing1
              {
                OFFSET -8.82822 0.546677 1.51678
                CHANNELS 3 Zrotation Xrotation Yrotation
                JOINT rRing2
                {
                  OFFSET -2.60934 -0.819778 -0.0198488
                  CHANNELS 3 Zrotation Xrotation Yrotation
                  End Site
                  {
                    OFFSET -2.33842 -0.294052 0.168128
                  }
                }
              }
              JOINT rPinky1
              {
                OFFSET -8.27202 -0.0477905 -0.4584
                CHANNELS 3 Zrotation Xrotation Yrotation
                JOINT rPinky2
                {
                  OFFSET -1.82734 -0.647385 -0.700984
                  CHANNELS 3 Zrotation Xrotation Yrotation
                  End Site
                  {
                    OFFSET -1.69225 -0.51767 -0.607171
                  }
                }
              }
            }
          }
        }
      }
      JOINT lCollar
      {
        OFFSET 2.68224 19.2634 -4.8768
        CHANNELS 3 Zrotation Xrotation Yrotation
        JOINT lShldr
        {
          OFFSET 8.77824 -1.95073 1.46304
          CHANNELS 3 Zrotation Xrotation Yrotation
          JOINT lForeArm
          {
            OFFSET 28.1742 -1.7115 0.48768
            CHANNELS 3 Zrotation Xrotation Yrotation
            JOINT lHand
            {
              OFFSET 22.5879 0.773209 7.07136
              CHANNELS 3 Zrotation Xrotation Yrotation
              JOINT lThumb1
              {
                OFFSET 1.2192 -0.487915 3.41376
                CHANNELS 3 Zrotation Xrotation Yrotation
                JOINT lThumb2
                {
                  OFFSET 3.37035 -0.52449 3.41376
                  CHANNELS 3 Zrotation Xrotation Yrotation
                  End Site
                  {
                    OFFSET 1.78271 -1.18214 1.43049
                  }
                }
              }
              JOINT lIndex1
              {
                OFFSET 7.75947 0.938293 5.60832
                CHANNELS 3 Zrotation Xrotation Yrotation
                JOINT lIndex2
                {
                  OFFSET 2.54057 -0.884171 1.56538
                  CHANNELS 3 Zrotation Xrotation Yrotation
                  End Site
                  {
                    OFFSET 1.62519 -0.234802 1.16502
                  }
                }
              }
              JOINT lMid1
              {
                OFFSET 8.24714 1.18213 3.41376
                CHANNELS 3 Zrotation Xrotation Yrotation
                JOINT lMid2
                {
                  OFFSET 3.10165 -0.590103 1.0647
                  CHANNELS 3 Zrotation Xrotation Yrotation
                  End Site
                  {
                    OFFSET 2.48547 -0.328903 0.83742
                  }
                }
              }
              JOINT lRing1
              {
                OFFSET 8.82822 0.546677 1.51678
                CHANNELS 3 Zrotation Xrotation Yrotation
                JOINT lRing2
                {
                  OFFSET 2.60934 -0.819778 -0.0198488
                  CHANNELS 3 Zrotation Xrotation Yrotation
                  End Site
                  {
                    OFFSET 2.33842 -0.294052 0.168128
                  }
                }
              }
              JOINT lPinky1
              {
                OFFSET 8.27202 -0.0477905 -0.4584
                CHANNELS 3 Zrotation Xrotation Yrotation
                JOINT lPinky2
                {
                  OFFSET 1.82734 -0.647385 -0.700984
                  CHANNELS 3 Zrotation Xrotation Yrotation
                  End Site
                  {
                    OFFSET 1.69225 -0.51767 -0.607171
                  }
                }
              }
            }
          }
        }
      }
    }
  }
  JOINT rButtock
  {
    OFFSET -8.77824 4.35084 1.2192
    CHANNELS 3 Zrotation Xrotation Yrotation
    JOINT rThigh
    {
      OFFSET 0 -1.70687 -2.19456
      CHANNELS 3 Zrotation Xrotation Yrotation
      JOINT rShin
      {
        OFFSET 0 -36.8199 0.73152
        CHANNELS 3 Zrotation Xrotation Yrotation
        JOINT rFoot
        {
          OFFSET 0.73152 -45.1104 -5.12064
          CHANNELS 3 Zrotation Xrotation Yrotation
          End Site
          {
            OFFSET -1.1221 -3.69964 12.103
          }
        }
      }
    }
  }
  JOINT lButtock
  {
    OFFSET 8.77824 4.35084 1.2192
    CHANNELS 3 Zrotation Xrotation Yrotation
    JOINT lThigh
    {
      OFFSET 0 -1.70687 -2.19456
      CHANNELS 3 Zrotation Xrotation Yrotation
      JOINT lShin
      {
        OFFSET 0 -36.8199 0.73152
        CHANNELS 3 Zrotation Xrotation Yrotation
        JOINT lFoot
        {
          OFFSET -0.73152 -45.1104 -5.12064
          CHANNELS 3 Zrotation Xrotation Yrotation
          End Site
          {
            OFFSET 1.1221 -3.69964 12.103
          }
        }
      }
    }
  }
}
MOTION
Frames:	4
Frame Time:	0.00833333
41.7724 16.2239 -80.5673 -2.39215 -31.4084 -3.74454 0.11876 49.0163 4.04873 1.94063 -2.67281 1.28471 -9.29283 -6.29482 -3.6772 10.4673 -21.9342 -1.77355 -0 0 0 -0 0 0 3.55992e-014 6.36088e-014 -2.75317e-014 32.1885 34.9623 59.179 -23.8798 -18.8742 49.2312 -0.124564 10.0129 1.42187 -6.19179e-010 -3.28449e-009 3.57965e-010 -1.06773e-009 -5.69507e-009 6.27011e-010 -6.19178e-010 -3.2845e-009 3.57949e-010 7.73091 5.47488 0.417314 -6.19182e-010 -3.28448e-009 3.57965e-010 2.90554 0.965183 0.102902 -6.19178e-010 -3.28448e-009 3.57963e-010 10.2786 0.731801 0.0259123 -6.19193e-010 -3.28448e-009 3.57962e-010 2.22167 -0.733487 -0.20892 3.5568e-014 6.36138e-014 -2.77305e-014 -28.3227 35.7106 -66.3822 22.7553 -16.935 -45.883 2.49828 40.1976 -6.82032 2.15804e-010 -7.75696e-010 6.40723e-011 3.75352e-010 -1.35771e-009 1.03307e-010 2.15803e-010 -7.75694e-010 6.40882e-011 -7.73091 5.47488 -0.417314 2.15804e-010 -7.75696e-010 6.40786e-011 -2.90554 0.965183 -0.102902 2.15794e-010 -7.75695e-010 6.4081e-011 -10.2786 0.731801 -0.0259123 2.15808e-010 -7.75693e-010 6.40786e-011 -2.22167 -0.733487 0.20892 -2.03217e-016 0 -3.88251e-019 -44.0824 -37.9542 -23.7976 4.24901 87.4978 6.71333 8.85979 -11.4997 6.41545 2.03217e-016 0 3.88251e-019 45.6175 -35.1797 20.3553 -2.53327 87.2563 -7.87584 -8.11955 -16.5315 -17.3787 
41.7882 16.3022 -80.6224 -2.29543 -31.5833 -3.62472 -0.0142699 49.031 4.08664 2.00578 -2.59208 1.28007 -9.24117 -6.01764 -3.70854 10.3889 -22.2981 -1.88468 -0 0 0 -0 0 0 1.51605e-014 7.84797e-014 -1.64758e-014 32.62 34.9279 58.7727 -23.8823 -18.8787 49.2393 -0.130515 10.2462 1.45572 -5.53573e-010 -2.97258e-009 3.24609e-010 -9.54678e-010 -5.15501e-009 5.68594e-010 -5.53571e-010 -2.97259e-009 3.24594e-010 7.73091 5.47488 0.417314 -5.53577e-010 -2.97258e-009 3.2461e-010 2.90554 0.965183 0.102902 -5.53572e-010 -2.97257e-009 3.24607e-010 10.2786 0.731801 0.0259123 -5.53586e-010 -2.97257e-009 3.24607e-010 2.22167 -0.733487 -0.20892 1.52033e-014 7.84864e-014 -1.66688e-014 -28.297 35.7682 -66.3923 22.6975 -16.8422 -45.7159 2.56009 40.5917 -6.91616 3.07065e-010 -1.0332e-009 1.89689e-010 5.36908e-010 -1.82077e-009 3.16473e-010 3.07067e-010 -1.03321e-009 1.89704e-010 -7.73091 5.47488 -0.417314 3.07065e-010 -1.0332e-009 1.89694e-010 -2.90554 0.965183 -0.102902 3.07056e-010 -1.0332e-009 1.89696e-010 -10.2786 0.731801 -0.0259123 3.07068e-010 -1.0332e-009 1.89692e-010 -2.22167 -0.733487 0.20892 -2.03217e-016 0 -3.88251e-019 -44.1702 -37.7194 -23.8569 4.12584 87.4266 6.82215 8.8387 -11.4315 6.45331 2.03217e-016 0 3.88251e-019 45.4473 -35.0969 20.3152 -2.4827 87.1756 -7.92079 -8.09905 -16.4349 -17.4864 
41.7944 16.3813 -80.68 -2.14211 -31.7453 -3.46941 -0.215797 49.0206 4.13652 2.12655 -2.47116 1.27103 -9.21292 -5.66472 -3.73737 10.3397 -22.7919 -1.97602 -0 0 0 -0 0 0 -1.69518e-014 9.84945e-014 -2.0686e-015 32.9573 34.8863 58.4176 -23.8887 -18.8905 49.2603 -0.136487 10.4759 1.48909 -4.71499e-010 -2.46716e-009 2.49777e-010 -8.13658e-010 -4.28127e-009 4.38187e-010 -4.71495e-010 -2.46717e-009 2.49766e-010 7.73091 5.47488 0.417314 -4.71504e-010 -2.46718e-009 2.49779e-010 2.90554 0.965183 0.102902 -4.71496e-010 -2.46717e-009 2.49776e-010 10.2786 0.731801 0.0259123 -4.71508e-010 -2.46716e-009 2.49777e-010 2.22167 -0.733487 -0.20892 -1.68179e-014 9.85024e-014 -2.25807e-015 -28.2397 35.7734 -66.4896 22.6084 -16.6998 -45.463 2.63629 41.0646 -7.03292 4.74367e-010 -1.45355e-009 4.75896e-010 8.34768e-010 -2.58567e-009 8.03945e-010 4.74369e-010 -1.45356e-009 4.75906e-010 -7.73091 5.47488 -0.417314 4.74368e-010 -1.45355e-009 4.75897e-010 -2.90554 0.965183 -0.102902 4.7436e-010 -1.45355e-009 4.75899e-010 -10.2786 0.731801 -0.0259123 4.74369e-010 -1.45355e-009 4.75891e-010 -2.22167 -0.733487 0.20892 -2.03217e-016 0 -3.88251e-019 -44.3058 -37.477 -23.9188 4.01578 87.3569 6.91969 8.81826 -11.3615 6.43207 2.03217e-016 0 3.88251e-019 45.2331 -35.0128 20.2876 -2.44822 87.092 -7.95489 -8.0719 -16.3229 -17.5648 
41.8105 16.4478 -80.6753 -1.99143 -31.9005 -3.31798 -0.408976 49.006 4.1812 2.25987 -2.34141 1.26175 -9.20489 -5.30269 -3.76522 10.3003 -23.3205 -2.0543 -0 0 0 -0 0 0 -4.65901e-014 1.08222e-013 1.1236e-014 33.2026 34.8414 58.1229 -23.8884 -18.89 49.2595 -0.142253 10.692 1.52052 -3.04725e-010 -1.6297e-009 1.66879e-010 -5.26173e-010 -2.8299e-009 2.92859e-010 -3.0472e-010 -1.6297e-009 1.66872e-010 7.73091 5.47488 0.417314 -3.04731e-010 -1.62972e-009 1.66883e-010 2.90554 0.965183 0.102902 -3.0472e-010 -1.6297e-009 1.66877e-010 10.2786 0.731801 0.0259123 -3.04731e-010 -1.6297e-009 1.66881e-010 2.22167 -0.733487 -0.20892 -4.63806e-014 1.08231e-013 1.10454e-014 -28.1489 35.7572 -66.6327 22.5112 -16.5452 -45.1918 2.71483 41.5372 -7.1517 5.94337e-010 -1.73479e-009 7.01104e-010 1.04876e-009 -3.10049e-009 1.18801e-009 5.94338e-010 -1.73481e-009 7.01109e-010 -7.73091 5.47488 -0.417314 5.94337e-010 -1.73478e-009 7.01102e-010 -2.90554 0.965183 -0.102902 5.94331e-010 -1.73478e-009 7.01103e-010 -10.2786 0.731801 -0.0259123 5.94337e-010 -1.73478e-009 7.01092e-010 -2.22167 -0.733487 0.20892 -2.03217e-016 0 -3.88251e-019 -44.4413 -37.239 -23.988 3.92079 87.2948 7.00246 8.79853 -11.2931 6.40216 2.03217e-016 0 3.88251e-019 45.0319 -34.926 20.2794 -2.41744 87.0132 -7.98497 -8.04617 -16.214 -17.6402 
